<?xml version="1.0" encoding="utf-8"?>
<!-- Generator: Adobe Illustrator 27.5.0, SVG Export Plug-In . SVG Version: 6.00 Build 0)  -->
<svg version="1.1" xmlns="http://www.w3.org/2000/svg" xmlns:xlink="http://www.w3.org/1999/xlink" x="0px" y="0px"
	 viewBox="0 0 500 500" style="enable-background:new 0 0 500 500;" xml:space="preserve">
<g id="Background_Complete">
	<g>
		<rect y="382.398" style="fill:#EBEBEB;" width="500" height="0.25"/>
		<rect x="416.779" y="398.494" style="fill:#EBEBEB;" width="33.122" height="0.25"/>
		<rect x="322.527" y="401.208" style="fill:#EBEBEB;" width="8.693" height="0.25"/>
		<rect x="396.586" y="389.208" style="fill:#EBEBEB;" width="19.192" height="0.25"/>
		<rect x="52.459" y="390.888" style="fill:#EBEBEB;" width="43.193" height="0.25"/>
		<rect x="104.556" y="390.888" style="fill:#EBEBEB;" width="6.333" height="0.25"/>
		<rect x="131.471" y="395.111" style="fill:#EBEBEB;" width="93.676" height="0.25"/>
		<path style="fill:#EBEBEB;" d="M237.014,337.8H43.915c-3.147,0-5.708-2.561-5.708-5.708V60.66c0-3.147,2.561-5.708,5.708-5.708
			h193.099c3.146,0,5.707,2.561,5.707,5.708v271.432C242.721,335.239,240.16,337.8,237.014,337.8z M43.915,55.203
			c-3.01,0-5.458,2.448-5.458,5.458v271.432c0,3.01,2.448,5.458,5.458,5.458h193.099c3.009,0,5.457-2.448,5.457-5.458V60.66
			c0-3.009-2.448-5.458-5.457-5.458H43.915z"/>
		<path style="fill:#EBEBEB;" d="M453.31,337.8H260.212c-3.147,0-5.707-2.561-5.707-5.708V60.66c0-3.147,2.561-5.708,5.707-5.708
			H453.31c3.148,0,5.708,2.561,5.708,5.708v271.432C459.019,335.239,456.458,337.8,453.31,337.8z M260.212,55.203
			c-3.009,0-5.457,2.448-5.457,5.458v271.432c0,3.01,2.448,5.458,5.457,5.458H453.31c3.01,0,5.458-2.448,5.458-5.458V60.66
			c0-3.009-2.448-5.458-5.458-5.458H260.212z"/>
	</g>
	<g>
		<g>
			<polygon style="fill:#E0E0E0;" points="409.527,123.787 327.197,229.061 266.776,241.186 204.114,286.837 165.985,258.695 
				85.598,382.235 107.072,382.235 170.659,284.516 204.044,309.157 274.186,258.057 337.272,245.398 423.706,134.876 			"/>
		</g>
		<polygon style="fill:#E0E0E0;" points="427.507,110.462 392.439,119.655 425.664,146.668 		"/>
		<g>
			<circle style="fill:#E0E0E0;" cx="137.548" cy="127.243" r="40.771"/>
			<path style="fill:#EBEBEB;" d="M137.548,127.243l36.583-17.999c2.755,5.6,4.188,11.758,4.188,17.999
				c0,22.366-18.405,40.771-40.771,40.771s-40.771-18.405-40.771-40.771c0-11.347,4.737-22.194,13.06-29.906L137.548,127.243z"/>
			<path style="fill:#F5F5F5;" d="M137.548,127.243l-8.452,39.886c-18.772-3.978-32.32-20.696-32.32-39.886
				c0-11.347,4.737-22.194,13.06-29.906L137.548,127.243z"/>
			<circle style="fill:#FFFFFF;" cx="137.548" cy="127.243" r="22.035"/>
		</g>
		<g>
			<rect x="69.017" y="238.031" style="fill:#F5F5F5;" width="32.454" height="21.27"/>
			<rect x="69.017" y="238.031" style="fill:#E0E0E0;" width="32.454" height="4.484"/>
		</g>
		<g>
			<rect x="403.908" y="328.942" style="fill:#F5F5F5;" width="32.454" height="21.27"/>
			<rect x="403.908" y="328.942" style="fill:#E0E0E0;" width="32.454" height="4.484"/>
		</g>
		<g>
			<rect x="306.753" y="80.916" style="fill:#F5F5F5;" width="32.454" height="21.27"/>
			<rect x="306.753" y="80.916" style="fill:#E0E0E0;" width="32.454" height="4.484"/>
		</g>
		<g>
			<rect x="241.69" y="338.087" style="fill:#F5F5F5;" width="32.454" height="21.27"/>
			<rect x="241.69" y="338.087" style="fill:#E0E0E0;" width="32.454" height="4.484"/>
		</g>
	</g>
</g>
<g id="Background_Simple" style="display:none;">
	<g style="display:inline;">
		<path style="fill:#407BFF;" d="M86.661,101.625c27.919-59.449,127.059-51.062,165.317-9.255
			c38.258,41.806,50.696,68.599,85.208,52.983c34.512-15.616,78.518-11.44,81.042,38.164s-37.913,108.263-102.09,125.615
			c-64.177,17.352-64.161,78.759-149.1,66.368c-46.31-6.756-47.365-56.86-40.825-98.301
			C132.753,235.758,54.282,170.569,86.661,101.625z"/>
		<path style="opacity:0.9;fill:#FFFFFF;" d="M86.661,101.625c27.919-59.449,127.059-51.062,165.317-9.255
			c38.258,41.806,50.696,68.599,85.208,52.983c34.512-15.616,78.518-11.44,81.042,38.164s-37.913,108.263-102.09,125.615
			c-64.177,17.352-64.161,78.759-149.1,66.368c-46.31-6.756-47.365-56.86-40.825-98.301
			C132.753,235.758,54.282,170.569,86.661,101.625z"/>
	</g>
</g>
<g id="Shadow_1_">
	<ellipse id="_x3C_Path_x3E__359_" style="fill:#F5F5F5;" cx="250" cy="416.238" rx="193.889" ry="11.323"/>
</g>
<g id="Screen">
	<g>
		<path style="fill:#407BFF;" d="M331.163,313.997H94.942c-2.719,0-4.922-2.204-4.922-4.922V126.655
			c0-2.719,2.204-4.922,4.922-4.922h236.221c2.719,0,4.922,2.204,4.922,4.922v182.419
			C336.086,311.793,333.882,313.997,331.163,313.997z"/>
		<path style="opacity:0.8;fill:#FFFFFF;" d="M336.081,135.491v173.58c0,2.72-2.2,4.93-4.92,4.93H94.941
			c-2.72,0-4.92-2.21-4.92-4.93v-173.58H336.081z"/>
		<g>
			<g>
				<line style="fill:none;stroke:#263238;stroke-miterlimit:10;" x1="110.984" y1="166.423" x2="149.556" y2="166.423"/>
				<line style="fill:none;stroke:#263238;stroke-miterlimit:10;" x1="110.984" y1="170.182" x2="149.556" y2="170.182"/>
				<line style="fill:none;stroke:#263238;stroke-miterlimit:10;" x1="110.984" y1="173.94" x2="149.556" y2="173.94"/>
				<line style="fill:none;stroke:#263238;stroke-miterlimit:10;" x1="110.984" y1="177.698" x2="149.556" y2="177.698"/>
				<line style="fill:none;stroke:#263238;stroke-miterlimit:10;" x1="110.984" y1="181.456" x2="149.556" y2="181.456"/>
				<line style="fill:none;stroke:#263238;stroke-miterlimit:10;" x1="110.984" y1="185.215" x2="137.548" y2="185.215"/>
			</g>
			<rect x="105.742" y="161.38" style="opacity:0.6;fill:#FFFFFF;" width="49.055" height="28.879"/>
		</g>
		<g>
			<g>
				<line style="fill:none;stroke:#263238;stroke-miterlimit:10;" x1="171.162" y1="147.652" x2="199.727" y2="147.652"/>
				<line style="fill:none;stroke:#263238;stroke-miterlimit:10;" x1="171.162" y1="151.41" x2="199.727" y2="151.41"/>
				<line style="fill:none;stroke:#263238;stroke-miterlimit:10;" x1="171.162" y1="155.169" x2="199.727" y2="155.169"/>
				<line style="fill:none;stroke:#263238;stroke-miterlimit:10;" x1="171.162" y1="158.927" x2="191.722" y2="158.927"/>
			</g>
			<rect x="165.92" y="143.203" style="opacity:0.6;fill:#FFFFFF;" width="39.049" height="20.173"/>
		</g>
		<g>
			<g>
				<line style="fill:none;stroke:#263238;stroke-miterlimit:10;" x1="288.753" y1="243.385" x2="317.318" y2="243.385"/>
				<line style="fill:none;stroke:#263238;stroke-miterlimit:10;" x1="288.753" y1="247.144" x2="317.318" y2="247.144"/>
				<line style="fill:none;stroke:#263238;stroke-miterlimit:10;" x1="288.753" y1="250.902" x2="317.318" y2="250.902"/>
				<line style="fill:none;stroke:#263238;stroke-miterlimit:10;" x1="288.753" y1="254.66" x2="309.313" y2="254.66"/>
			</g>
			<rect x="283.511" y="238.936" style="opacity:0.6;fill:#FFFFFF;" width="39.049" height="20.173"/>
		</g>
		<g>
			<g>
				
					<ellipse transform="matrix(0.9239 -0.3827 0.3827 0.9239 -89.2729 132.4751)" style="fill:#407BFF;" cx="288.362" cy="290.64" rx="10.406" ry="10.406"/>
				
					<ellipse transform="matrix(0.9239 -0.3827 0.3827 0.9239 -89.2727 132.4747)" style="opacity:0.3;fill:#FFFFFF;" cx="288.362" cy="290.64" rx="8.882" ry="8.882"/>
				<g>
					<path style="fill:#407BFF;" d="M288.998,295.43v1.499H287.9v-1.485c-1.311-0.081-2.583-0.509-3.279-1.111l0.602-1.352
						c0.656,0.535,1.66,0.923,2.677,1.017v-2.676c-1.485-0.361-3.078-0.843-3.078-2.704c0-1.365,0.99-2.556,3.078-2.756v-1.512
						h1.097v1.485c0.99,0.054,1.994,0.348,2.717,0.816l-0.549,1.352c-0.709-0.415-1.458-0.643-2.168-0.723v2.703
						c1.485,0.361,3.104,0.83,3.104,2.69C292.102,294.039,291.099,295.216,288.998,295.43z M287.9,289.703v-2.382
						c-0.95,0.148-1.352,0.629-1.352,1.218C286.549,289.181,287.124,289.475,287.9,289.703z M290.389,292.794
						c0-0.656-0.589-0.963-1.392-1.191v2.368C289.975,293.824,290.389,293.37,290.389,292.794z"/>
				</g>
			</g>
			<g>
				<polygon style="fill:#407BFF;" points="305.127,222.337 299.084,218.315 293.042,222.337 293.042,205.726 305.127,205.726 				
					"/>
				<polygon style="fill:#407BFF;" points="299.084,196.286 300.03,195.546 300.829,196.443 301.892,195.884 302.518,196.909 
					303.664,196.549 304.096,197.669 305.288,197.52 305.514,198.699 306.713,198.765 306.725,199.965 307.892,200.244 
					307.69,201.427 308.789,201.91 308.378,203.038 309.374,203.71 308.768,204.747 309.628,205.585 308.847,206.497 
					309.543,207.475 308.612,208.233 309.122,209.32 308.07,209.899 308.378,211.06 307.24,211.442 307.336,212.639 
					306.148,212.812 306.028,214.006 304.828,213.964 304.497,215.118 303.324,214.863 302.793,215.939 301.684,215.479 
					300.969,216.443 299.96,215.791 299.084,216.612 298.208,215.791 297.2,216.443 296.484,215.479 295.376,215.939 
					294.844,214.863 293.671,215.118 293.34,213.964 292.14,214.006 292.021,212.812 290.833,212.639 290.928,211.442 
					289.79,211.06 290.098,209.899 289.047,209.32 289.557,208.233 288.626,207.475 289.322,206.497 288.541,205.585 289.4,204.747 
					288.795,203.71 289.79,203.038 289.379,201.91 290.479,201.427 290.276,200.244 291.444,199.965 291.456,198.765 
					292.655,198.699 292.881,197.52 294.072,197.669 294.505,196.549 295.651,196.909 296.276,195.884 297.339,196.443 
					298.138,195.546 				"/>
				<polygon style="opacity:0.3;fill:#FFFFFF;" points="299.084,196.286 300.03,195.546 300.829,196.443 301.892,195.884 
					302.518,196.909 303.664,196.549 304.096,197.669 305.288,197.52 305.514,198.699 306.713,198.765 306.725,199.965 
					307.892,200.244 307.69,201.427 308.789,201.91 308.378,203.038 309.374,203.71 308.768,204.747 309.628,205.585 
					308.847,206.497 309.543,207.475 308.612,208.233 309.122,209.32 308.07,209.899 308.378,211.06 307.24,211.442 
					307.336,212.639 306.148,212.812 306.028,214.006 304.828,213.964 304.497,215.118 303.324,214.863 302.793,215.939 
					301.684,215.479 300.969,216.443 299.96,215.791 299.084,216.612 298.208,215.791 297.2,216.443 296.484,215.479 
					295.376,215.939 294.844,214.863 293.671,215.118 293.34,213.964 292.14,214.006 292.021,212.812 290.833,212.639 
					290.928,211.442 289.79,211.06 290.098,209.899 289.047,209.32 289.557,208.233 288.626,207.475 289.322,206.497 
					288.541,205.585 289.4,204.747 288.795,203.71 289.79,203.038 289.379,201.91 290.479,201.427 290.276,200.244 291.444,199.965 
					291.456,198.765 292.655,198.699 292.881,197.52 294.072,197.669 294.505,196.549 295.651,196.909 296.276,195.884 
					297.339,196.443 298.138,195.546 				"/>
				<circle style="fill:#407BFF;" cx="299.084" cy="206.079" r="8.168"/>
				<polyline style="opacity:0.3;fill:none;stroke:#FFFFFF;stroke-width:2;stroke-miterlimit:10;" points="295.124,205.761 
					298.806,208.985 303.036,203.279 				"/>
			</g>
			<g>
				<path style="fill:#407BFF;" d="M254.143,152.668c-2.05-2.04-4.73-3.07-7.41-3.07c-2.68,0-5.36,1.03-7.41,3.07
					c-4.1,4.1-4.1,10.73,0,14.83l7.41,7.41l7.41-7.41C258.243,163.398,258.243,156.768,254.143,152.668z M250.163,163.508
					c-0.95,0.94-2.19,1.42-3.43,1.42c-1.24,0-2.48-0.48-3.43-1.42c-1.89-1.89-1.89-4.96,0-6.85c0.95-0.95,2.19-1.43,3.43-1.43
					c1.24,0,2.48,0.48,3.43,1.43C252.053,158.548,252.053,161.618,250.163,163.508z"/>
				<path style="opacity:0.3;fill:#FFFFFF;" d="M243.303,156.658c-1.89,1.89-1.89,4.96,0,6.85c0.95,0.94,2.19,1.42,3.43,1.42v9.98
					l-7.41-7.41c-4.1-4.1-4.1-10.73,0-14.83c2.05-2.04,4.73-3.07,7.41-3.07v5.63C245.493,155.228,244.253,155.708,243.303,156.658z"
					/>
			</g>
			<g>
				<path style="fill:#407BFF;" d="M130.73,228.181c-7.55-2.17-15.13-14.76-9.41-19.1c5.58-4.25,9.24,1.66,9.4,1.94
					c0.01,0.01,0.01,0.01,0.01,0.01s3.7-6.3,9.42-1.95C145.87,213.421,138.29,226.011,130.73,228.181z"/>
				<path style="opacity:0.3;fill:#FFFFFF;" d="M130.73,211.031v17.15c-7.55-2.17-15.13-14.76-9.41-19.1
					c5.58-4.25,9.24,1.66,9.4,1.94C130.73,211.031,130.73,211.031,130.73,211.031z"/>
			</g>
			<g>
				
					<circle style="fill:none;stroke:#407BFF;stroke-linecap:round;stroke-linejoin:round;stroke-dasharray:11.649,9.7075,24.2688,2.9123;" cx="207.32" cy="231.739" r="38.635"/>
			</g>
			<g>
				
					<circle style="fill:none;stroke:#407BFF;stroke-linecap:round;stroke-linejoin:round;stroke-dasharray:14.414,12.0116,30.0291,3.6035;" cx="246.733" cy="162.253" r="19.122"/>
			</g>
			<g>
				
					<path style="fill:none;stroke:#407BFF;stroke-linecap:round;stroke-linejoin:round;stroke-dasharray:14.414,12.0116,30.0291,3.6035;" d="
					M317.396,214.449c-3.041,10.113-13.706,15.846-23.819,12.805c-10.113-3.042-15.846-13.706-12.805-23.819
					c3.042-10.113,13.706-15.846,23.819-12.805C314.705,193.672,320.438,204.336,317.396,214.449z"/>
			</g>
			<g>
				
					<path style="fill:none;stroke:#407BFF;stroke-linecap:round;stroke-linejoin:round;stroke-dasharray:14.414,12.0116,30.0291,3.6035;" d="
					M292.618,309.282c-10.296,2.35-20.548-4.091-22.898-14.387c-2.351-10.296,4.091-20.548,14.387-22.898
					c10.296-2.35,20.548,4.091,22.898,14.387C309.355,296.68,302.914,306.932,292.618,309.282z"/>
			</g>
			<g>
				
					<path style="fill:none;stroke:#407BFF;stroke-linecap:round;stroke-linejoin:round;stroke-dasharray:14.414,12.0116,30.0291,3.6035;" d="
					M149.378,213.609c2.35,10.296-4.091,20.548-14.387,22.898c-10.296,2.35-20.548-4.091-22.899-14.387
					c-2.35-10.296,4.091-20.548,14.387-22.898C136.775,196.872,147.027,203.313,149.378,213.609z"/>
			</g>
			
				<line style="fill:none;stroke:#407BFF;stroke-linecap:round;stroke-linejoin:round;stroke-miterlimit:10;" x1="226.381" y1="198.133" x2="237.298" y2="178.886"/>
			
				<line style="fill:none;stroke:#407BFF;stroke-linecap:round;stroke-linejoin:round;stroke-miterlimit:10;" x1="149.555" y1="221.274" x2="169.301" y2="224.852"/>
			
				<line style="fill:none;stroke:#407BFF;stroke-linecap:round;stroke-linejoin:round;stroke-miterlimit:10;" x1="238.571" y1="254.452" x2="272.895" y2="279.398"/>
			
				<line style="fill:none;stroke:#407BFF;stroke-linecap:round;stroke-linejoin:round;stroke-miterlimit:10;" x1="280.526" y1="213.553" x2="244.822" y2="222.422"/>
		</g>
		<g>
			<g>
				
					<path style="fill:none;stroke:#263238;stroke-width:0.7602;stroke-linecap:round;stroke-linejoin:round;stroke-miterlimit:10;" d="
					M233.057,230.06c4.044-3.208,7.9,0.792,10.756,5.626"/>
				
					<path style="fill:none;stroke:#263238;stroke-width:0.7602;stroke-linecap:round;stroke-linejoin:round;stroke-miterlimit:10;" d="
					M250.805,239.807c0,0-6.965-12.205-16.922-9.464"/>
				<g>
					<path style="fill:#407BFF;" d="M245.45,247.193c-0.073,0.086-0.182,0.139-0.303,0.134c-0.21-0.006-0.374-0.182-0.368-0.392
						c0.004-0.137,0.33-13.785-9.188-16.546c-1.429-0.415-2.543-0.237-3.408,0.543c-3.729,3.378-1.408,16.466-1.384,16.599
						c0.037,0.206-0.099,0.404-0.306,0.442c-0.207,0.037-0.405-0.1-0.442-0.306c-0.101-0.555-2.439-13.652,1.624-17.299
						c1.061-0.957,2.45-1.196,4.129-0.709c10.086,2.927,9.741,17.158,9.736,17.301C245.537,247.049,245.503,247.13,245.45,247.193z"
						/>
				</g>
				<g>
					<path style="fill:#407BFF;" d="M240.133,251.569c-0.09,0.107-0.236,0.16-0.38,0.125c-0.204-0.05-0.329-0.255-0.28-0.459
						c0.037-0.155,3.688-15.525-0.492-20.228c-0.937-1.055-2.178-1.473-3.792-1.279c-9.841,1.182-9.127,21.329-9.119,21.533
						c0.008,0.209-0.155,0.387-0.364,0.395c-0.21,0.009-0.387-0.154-0.395-0.364c-0.036-0.859-0.749-21.053,9.787-22.319
						c1.854-0.223,3.352,0.292,4.453,1.529c4.443,4.998,0.819,20.264,0.662,20.912C240.198,251.473,240.17,251.526,240.133,251.569z
						"/>
				</g>
			</g>
			<g>
				<path style="fill:#EBC0BC;" d="M224.718,213.585c0.931,3.178,1.827,6.405,2.718,9.6c0.922,3.159,1.813,6.444,2.822,9.317
					l0.158,0.444c-0.032-0.043-0.089-0.13-0.181-0.218c-0.178-0.193-0.486-0.312-0.555-0.302c-0.163,0.037,0.362,0.111,0.92-0.014
					c1.176-0.233,2.645-0.792,4.042-1.457c1.429-0.644,2.862-1.401,4.275-2.211c1.422-0.787,2.856-1.648,4.239-2.478l0.054-0.032
					c0.851-0.511,1.955-0.235,2.466,0.617c0.432,0.719,0.3,1.62-0.265,2.19c-2.474,2.495-5.099,4.679-8.095,6.69
					c-1.534,0.961-3.098,1.914-5.168,2.569c-1.055,0.289-2.249,0.643-4.057,0.277c-0.883-0.189-1.955-0.741-2.689-1.564
					c-0.368-0.404-0.657-0.846-0.865-1.27l-0.334-0.715c-0.773-1.701-1.372-3.299-1.96-4.926c-0.589-1.614-1.122-3.233-1.639-4.853
					c-1.044-3.238-2.004-6.468-2.85-9.768c-0.495-1.931,0.669-3.897,2.6-4.393c1.889-0.484,3.812,0.619,4.358,2.475L224.718,213.585
					z"/>
			</g>
			<g>
				<path style="fill:#EEC1BB;" d="M242.847,227.212l2.508-5.692l4.562,2.959c0,0-1.194,4.225-4.799,4.572L242.847,227.212z"/>
				<polygon style="fill:#EEC1BB;" points="248.833,218.78 251.706,221.8 249.918,224.479 245.355,221.519 				"/>
			</g>
			<g>
				
					<path style="fill:none;stroke:#263238;stroke-width:0.7602;stroke-linecap:round;stroke-linejoin:round;stroke-miterlimit:10;" d="
					M233.883,230.344c-8.971,2.471,4.71,17.733,4.71,17.733"/>
				<polygon style="fill:#407BFF;" points="254.214,235.857 281.202,260.674 280.581,269.938 255.768,286.246 230.184,254.917 
					232.969,248.705 				"/>
				<polygon style="opacity:0.1;fill:#FFFFFF;" points="254.214,235.857 281.202,260.674 280.581,269.938 255.768,286.246 
					230.184,254.917 251.719,243.117 				"/>
				<polygon style="opacity:0.1;fill:#FFFFFF;" points="251.719,243.117 280.581,269.938 255.768,286.246 230.184,254.917 				"/>
				<polygon style="opacity:0.2;enable-background:new    ;" points="232.969,248.705 230.184,254.917 251.719,243.117 
					254.214,235.857 				"/>
				
					<path style="fill:none;stroke:#263238;stroke-width:0.7602;stroke-linecap:round;stroke-linejoin:round;stroke-miterlimit:10;" d="
					M243.813,235.686c2.889,4.89,4.754,10.634,4.754,10.634"/>
				
					<path style="fill:none;stroke:#263238;stroke-width:0.7602;stroke-linecap:round;stroke-linejoin:round;stroke-miterlimit:10;" d="
					M236.485,253.691c0,0-11.562-17.178-3.428-23.63"/>
			</g>
			<g>
				<g>
					<path style="fill:#407BFF;" d="M235.4,230.342c0.118-0.125,0.23-0.255,0.368-0.358c0.11-0.083,0.236-0.144,0.352-0.219
						c-0.107-0.034-0.208-0.074-0.317-0.106c-1.679-0.487-3.068-0.248-4.129,0.709c-4.063,3.647-1.724,16.744-1.624,17.299
						c0.037,0.206,0.235,0.344,0.442,0.306c0.207-0.038,0.344-0.236,0.306-0.442c-0.024-0.132-2.345-13.221,1.384-16.599
						C233.008,230.188,234.064,229.999,235.4,230.342z"/>
					<path style="fill:#407BFF;" d="M241.953,234.078c-0.184,0.174-0.375,0.343-0.569,0.508c3.567,5.007,3.398,12.249,3.395,12.349
						c-0.007,0.21,0.158,0.386,0.368,0.392c0.121,0.004,0.23-0.048,0.303-0.134c0.053-0.063,0.087-0.144,0.09-0.233
						C245.543,246.856,245.722,239.317,241.953,234.078z"/>
				</g>
				<polygon style="fill:#263238;" points="250.132,245.367 260.129,280.642 254.751,288.208 225.071,289.11 219.679,249.023 
					225.305,245.189 				"/>
				<polygon style="opacity:0.2;fill:#FFFFFF;" points="250.132,245.367 260.129,280.642 254.751,288.208 225.071,289.11 
					219.679,249.023 225.305,245.189 				"/>
				<polygon style="opacity:0.2;fill:#FFFFFF;" points="250.132,245.367 260.129,280.642 254.751,288.208 225.071,289.11 
					219.679,249.023 244.204,250.245 				"/>
				<polygon style="opacity:0.2;fill:#FFFFFF;" points="244.204,250.245 254.751,288.208 225.071,289.11 219.679,249.023 				"/>
				<g>
					<path style="fill:#407BFF;" d="M236.232,229.695c0.365-0.222,0.749-0.415,1.154-0.566c-0.689-0.199-1.45-0.258-2.289-0.157
						c-10.536,1.266-9.822,21.46-9.787,22.319c0.008,0.21,0.185,0.373,0.395,0.364c0.209-0.008,0.372-0.186,0.364-0.395
						c-0.008-0.203-0.722-20.351,9.119-21.533C235.556,229.684,235.902,229.676,236.232,229.695z"/>
					<path style="fill:#407BFF;" d="M241.241,234.714c-0.18,0.148-0.371,0.272-0.568,0.387c1.121,6.352-1.171,16.011-1.2,16.133
						c-0.049,0.204,0.076,0.409,0.28,0.459c0.145,0.035,0.29-0.018,0.38-0.125c0.037-0.043,0.064-0.096,0.079-0.155
						c0.125-0.516,2.447-10.309,1.139-16.798C241.314,234.648,241.279,234.683,241.241,234.714z"/>
				</g>
			</g>
			<path style="fill:#263238;" d="M219.125,186.143c0,0,3.331,12.066-1.272,20.177c-4.604,8.111-19.939,19.727-31.788,14.585
				s-6.195-15.307,0.671-17.36c6.866-2.053,7.452-3.15,6.724-9.973c-0.728-6.824,4.62-15.646,14.481-14.466
				C217.802,180.286,219.125,186.143,219.125,186.143z"/>
			<path style="fill:#EEC1BB;" d="M223.884,284.631v0.01l-1.47,4.04l-2.09,5.72l-1.47,4.05l-2.15,7.45l-2.33,8.1h-13.16
				c0.22-2.25,0.5-4.77,0.85-7.42c0.42-3.13,0.93-6.43,1.56-9.68c0.15-0.79,0.31-1.58,0.48-2.36v-0.01c0.04-0.17,0.07-0.33,0.11-0.5
				c0.15-0.66,0.3-1.33,0.45-1.99c0.48-2.06,1.01-4.14,1.58-6.2v-0.01l4.14-0.28L223.884,284.631z"/>
			<path style="opacity:0.1;enable-background:new    ;" d="M223.884,284.641l-1.47,4.04l-2.09,5.72l-1.47,4.05l-2.15,7.45
				l-2.33,8.1h-13.2c0.22-2.29,0.5-4.84,0.85-7.5c0.42-3.14,0.94-6.43,1.58-9.6c0.16-0.78,0.33-1.57,0.5-2.36v-0.01
				c0.04-0.17,0.07-0.33,0.11-0.5c0.15-0.66,0.3-1.33,0.45-1.99c0.48-2.06,1.01-4.14,1.58-6.2l4.14-0.28L223.884,284.641z"/>
			<path style="opacity:0.2;enable-background:new    ;" d="M223.882,284.638l-3.557,9.766c-3.967,0.605-10.671,1.617-16.722,2.5
				c0.194-0.951,0.396-1.909,0.612-2.876c0.594-2.7,1.267-5.458,2.026-8.192L223.882,284.638z"/>
			<path style="fill:#EEC1BB;" d="M219.034,314.001h-13.29c-1.18-2.36-2.42-4.88-3.68-7.42c-0.01-0.03-0.02-0.05-0.04-0.08
				c-0.79-1.62-1.59-3.25-2.37-4.85c-0.75-1.54-1.49-3.11-2.21-4.72c-0.49-1.08-0.96-2.17-1.42-3.26c-1.09-2.59-2.09-5.21-2.95-7.8
				c-1.56-4.67-2.65-9.26-2.97-13.41l16.56,1.91l3.23,9.71l0.49,1.47v0.01l2,6l1.28,3.85l0.2,0.6l2.84,9.89L219.034,314.001z"/>
			<path style="opacity:0.2;enable-background:new    ;" d="M212.383,291.561l-14.942,5.374c-1.634-3.63-3.145-7.375-4.371-11.063
				l16.824-1.792L212.383,291.561z"/>
			<g>
				
					<path style="fill:none;stroke:#263238;stroke-width:0.7602;stroke-linecap:round;stroke-linejoin:round;stroke-miterlimit:10;" d="
					M161.642,269.644c0,0,8.109-11.478,1.41-19.338c-6.036-7.082-14.072,11.775-14.072,11.775"/>
				<polygon style="fill:#407BFF;" points="166.664,271.06 155.605,306.016 146.95,309.376 121.671,293.8 139.223,257.358 
					146.031,257.252 				"/>
				<polygon style="opacity:0.1;fill:#FFFFFF;" points="166.664,271.06 155.605,306.016 146.95,309.376 121.671,293.8 
					139.223,257.358 159.03,271.873 				"/>
				<polygon style="opacity:0.1;fill:#FFFFFF;" points="159.03,271.873 146.95,309.376 121.671,293.8 139.223,257.358 				"/>
				<polygon style="opacity:0.2;enable-background:new    ;" points="139.223,257.358 159.03,271.873 166.664,271.06 
					146.031,257.252 				"/>
				
					<path style="fill:none;stroke:#263238;stroke-width:0.7602;stroke-linecap:round;stroke-linejoin:round;stroke-miterlimit:10;" d="
					M143.002,262.548c0,0,10.668-17.747,19.957-13.109c9.29,4.637-8.165,20.935-8.165,20.935"/>
			</g>
			<path style="fill:#EEC1BB;" d="M223.247,216.314c0.021,0.417,0.036,0.866,0.055,1.36c0.165,5.117-2.764,6.976-4.387,22.676
				l-19.272,0.632c-0.041-2.283-2.906-9.342-4.755-14.245c-0.66-1.753-1.195-3.233-1.43-4.116c-0.187-0.734-0.391-1.49-0.604-2.268
				c-0.265-0.988-0.548-2.012-0.849-3.081c-0.395-1.436-0.834-2.968-1.317-4.581c1.287-0.346,2.592-0.656,3.891-0.935
				c2.11-0.448,4.235-0.798,6.382-1.051c3.663-0.477,7.358-0.698,11.049-0.659c2.422,0.094,5.029,0.344,6.995,0.568l0.001,0.008
				c1.904,0.206,3.219,0.398,3.219,0.398S222.993,211.242,223.247,216.314z"/>
			<path style="fill:#407BFF;" d="M224.526,268.427c0.172,2.197,0.286,4.552,0.344,7.077c0.001,0.251,0.011,0.502,0.014,0.761
				c0.02,1.188,0.027,2.422,0.014,3.688c-0.004,0.502-0.014,1.022-0.025,1.54c-0.01,0.641-0.027,1.29-0.05,1.954
				c-0.024,0.756-0.048,1.535-0.094,2.323c-0.028,0.817-0.079,1.644-0.127,2.493l-31.421,5.952
				c-0.408-0.963-0.792-1.905-1.144-2.826c-0.294-0.742-0.564-1.462-0.811-2.177c-0.271-0.736-0.518-1.458-0.749-2.167
				c-0.163-0.499-0.318-0.984-0.466-1.469c-0.451-1.478-0.836-2.892-1.151-4.265c-0.062-0.247-0.117-0.495-0.172-0.743
				c-0.711-3.182-1.083-6.075-1.195-8.726c-0.009-0.129-0.009-0.251-0.018-0.38c-0.575-16.647,10.468-32.327,10.468-32.327
				l-2.109-9.048c0,0,0.873-2.835,0.937-5.033c0.193-6.573-2.289-13.27-2.289-13.27c0.03-0.009,0.067-0.02,0.097-0.029
				c12.284-4.119,24.426-1.142,24.426-1.142l0,0.007c3.463,6.667,5.44,11.567,1.375,28.868c0,0,2.956,13.452,4.12,28.559
				C224.508,268.177,224.524,268.298,224.526,268.427z"/>
			<path style="opacity:0.5;fill:#FFFFFF;" d="M224.526,268.427c0.172,2.197,0.286,4.552,0.344,7.077
				c0.001,0.251,0.011,0.502,0.014,0.761c0.02,1.188,0.027,2.422,0.014,3.688c-0.004,0.502-0.014,1.022-0.025,1.54
				c-0.01,0.641-0.027,1.29-0.05,1.954c-0.024,0.756-0.048,1.535-0.094,2.323c-0.028,0.817-0.079,1.644-0.127,2.493l-31.421,5.952
				c-0.408-0.963-0.792-1.905-1.144-2.826c-0.294-0.742-0.564-1.462-0.811-2.177c-0.271-0.736-0.518-1.458-0.749-2.167
				c-0.163-0.499-0.318-0.984-0.466-1.469c-0.451-1.478-0.836-2.892-1.151-4.265c-0.062-0.247-0.117-0.495-0.172-0.743
				c-0.711-3.182-1.083-6.075-1.195-8.726c-0.009-0.129-0.009-0.251-0.018-0.38c-0.575-16.647,10.468-32.327,10.468-32.327
				l-2.109-9.048c0,0,0.873-2.835,0.937-5.033c0.193-6.573-2.289-13.27-2.289-13.27c0.03-0.009,0.067-0.02,0.097-0.029
				c12.284-4.119,24.426-1.142,24.426-1.142l0,0.007c3.463,6.667,5.44,11.567,1.375,28.868c0,0,2.956,13.452,4.12,28.559
				C224.508,268.177,224.524,268.298,224.526,268.427z"/>
			<g>
				<g>
					<path style="fill:#407BFF;" d="M152.684,267.919c-0.108-0.029-0.203-0.106-0.25-0.217c-0.083-0.193,0.006-0.416,0.199-0.499
						c0.126-0.054,12.628-5.537,11.101-15.329c-0.229-1.47-0.862-2.405-1.935-2.858c-4.639-1.948-15.514,5.695-15.624,5.773
						c-0.171,0.121-0.408,0.081-0.53-0.09c-0.121-0.171-0.081-0.409,0.09-0.53c0.46-0.326,11.336-7.989,16.36-5.852
						c1.316,0.556,2.121,1.714,2.391,3.441c1.618,10.377-11.421,16.088-11.553,16.145
						C152.851,267.937,152.764,267.941,152.684,267.919z"/>
				</g>
				<polygon style="fill:#263238;" points="156.32,271.388 128.594,295.378 119.462,293.709 106.081,267.201 140.116,245.346 
					145.971,248.82 				"/>
				<polygon style="opacity:0.2;fill:#FFFFFF;" points="156.32,271.388 128.594,295.378 119.462,293.709 106.081,267.201 
					140.116,245.346 145.971,248.82 				"/>
				<polygon style="opacity:0.2;fill:#FFFFFF;" points="156.32,271.388 128.594,295.378 119.462,293.709 106.081,267.201 
					140.116,245.346 149.391,268.083 				"/>
				<polygon style="opacity:0.2;fill:#FFFFFF;" points="149.391,268.083 119.462,293.709 106.081,267.201 140.116,245.346 				"/>
				<g>
					<path style="fill:#407BFF;" d="M146.468,264.955c-0.135-0.036-0.244-0.146-0.274-0.292c-0.041-0.206,0.091-0.406,0.297-0.448
						c0.156-0.032,15.626-3.231,18.117-9.009c0.559-1.296,0.413-2.597-0.447-3.977c-5.237-8.415-23.188,0.761-23.368,0.854
						c-0.186,0.096-0.416,0.024-0.512-0.162c-0.097-0.186-0.024-0.416,0.162-0.512c0.763-0.396,18.756-9.592,24.364-0.582
						c0.987,1.586,1.155,3.161,0.5,4.681c-2.647,6.141-18.012,9.32-18.665,9.453C146.583,264.973,146.523,264.97,146.468,264.955z"
						/>
				</g>
			</g>
			<path style="opacity:0.2;enable-background:new    ;" d="M196.021,223.346c0.112,1.09-0.109,2.316-1.133,3.391
				c-0.66-1.753-1.195-3.233-1.43-4.116c-0.187-0.734-0.391-1.49-0.604-2.268c0.644-0.051,1.321-0.075,2.03-0.062
				C194.884,220.291,195.853,221.658,196.021,223.346z"/>
			<g>
				<path style="fill:#EBC0BB;" d="M195.507,216.589c-0.548,3.736-1.23,7.417-1.991,11.116c-0.364,1.851-0.781,3.694-1.228,5.553
					c-0.221,0.932-0.455,1.857-0.726,2.81c-0.125,0.467-0.273,0.957-0.426,1.451l-0.117,0.381c-0.073,0.213-0.148,0.444-0.236,0.633
					c-0.17,0.404-0.363,0.745-0.56,1.063c-0.8,1.251-1.672,2.041-2.525,2.763c-0.857,0.712-1.717,1.306-2.579,1.858
					c-1.733,1.082-3.473,1.987-5.24,2.795c-3.542,1.607-7.085,2.934-10.8,3.987c-0.954,0.27-1.946-0.284-2.216-1.237
					c-0.235-0.828,0.152-1.685,0.882-2.073l0.047-0.025c1.6-0.852,3.254-1.71,4.842-2.619c1.609-0.877,3.191-1.792,4.717-2.753
					c1.524-0.958,3.02-1.934,4.359-2.981c0.67-0.516,1.304-1.05,1.839-1.585c0.531-0.525,0.98-1.09,1.148-1.442
					c0.04-0.083,0.069-0.156,0.07-0.187c0.011-0.024-0.006-0.02-0.001-0.027l0.065-0.295c0.092-0.408,0.184-0.821,0.267-1.265
					l0.495-2.66l0.932-5.445c0.604-3.648,1.193-7.331,1.857-10.97l0.003-0.016c0.358-1.961,2.237-3.261,4.198-2.903
					C194.501,212.864,195.785,214.676,195.507,216.589z"/>
			</g>
			<g>
				<path style="fill:#EEC1BB;" d="M169.235,247.813l-6.165-0.826l0.148,5.436c0,0,4.228,1.183,6.403-1.713L169.235,247.813z"/>
				<polygon style="fill:#EEC1BB;" points="158.919,248.528 159.999,252.553 163.217,252.423 163.07,246.987 				"/>
			</g>
			<path style="fill:none;stroke:#263238;stroke-width:0.5;stroke-miterlimit:10;" d="M205.572,209.402
				c-4.582,0.411-5.822,2.577-1.354,8.518c4.468,5.941,8.61,8.303,8.61,8.303S219.02,208.197,205.572,209.402z"/>
			<path style="fill:#EEC1BB;" d="M209.742,215.369c-6.001-1.052-7.697-3.718-7.697-3.718c2.575-2.21,2.285-5.663,1.753-7.834
				c-0.287-1.2-0.653-2.008-0.653-2.008l7.205,1.694c-0.245,1.191-0.375,2.197-0.422,3.047c-0.059,0.933-0.009,1.674,0.101,2.257
				c0.394,2.195,1.63,2.282,1.63,2.282C212.825,213.532,209.742,215.369,209.742,215.369z"/>
			<path style="opacity:0.2;enable-background:new    ;" d="M209.928,206.55c-0.059,0.933-0.009,1.674,0.101,2.257
				c-2.868-0.512-4.949-2.921-6.231-4.99c-0.287-1.2-0.653-2.008-0.653-2.008l7.205,1.694
				C210.105,204.693,209.974,205.7,209.928,206.55z"/>
			<g>
				<path style="fill:#EEC1BB;" d="M209.795,183.314c6.308,0.525,8.058,4.072,7.979,10.611c-0.099,8.173-2.381,13.795-10.124,11.403
					C197.133,202.079,199.318,182.441,209.795,183.314z"/>
				<path style="fill:#D4827D;" d="M213.725,193.233c0,0,0.737,1.72,1.618,2.769c0,0-0.611,0.813-1.722,0.575L213.725,193.233z"/>
				<g>
					<path style="fill:#263238;" d="M209.907,192.395c-0.031,0.519-0.337,0.923-0.683,0.903c-0.346-0.021-0.602-0.458-0.571-0.978
						c0.031-0.519,0.337-0.923,0.683-0.903C209.682,191.438,209.938,191.876,209.907,192.395z"/>
					<path style="fill:#263238;" d="M209.19,191.434l1.156-0.375C210.346,191.059,209.727,191.975,209.19,191.434z"/>
				</g>
				<g>
					<path style="fill:#263238;" d="M216.368,192.673c-0.031,0.519-0.337,0.923-0.684,0.903c-0.346-0.021-0.601-0.459-0.57-0.978
						c0.031-0.519,0.337-0.924,0.683-0.903C216.143,191.716,216.399,192.154,216.368,192.673z"/>
					<path style="fill:#263238;" d="M215.651,191.712l1.156-0.376C216.807,191.336,216.188,192.253,215.651,191.712z"/>
				</g>
				
					<path style="fill:none;stroke:#263238;stroke-width:0.5382;stroke-linecap:round;stroke-linejoin:round;stroke-miterlimit:10;" d="
					M210.206,188.033c0,0-1.753-0.378-2.815,0.726"/>
				
					<path style="fill:none;stroke:#263238;stroke-width:0.5382;stroke-linecap:round;stroke-linejoin:round;stroke-miterlimit:10;" d="
					M214.814,188.149c0,0,1.149-0.32,2.471,0.728"/>
				<path style="fill:#263238;" d="M202.015,193.372c0,0,3.381-4.937,3.268-8.976c0,0,12.927-4.066,12.487,8.674
					c0,0,2.16-11.166-8.665-12.319c-10.806-1.152-12.098,14.715-6.891,19.909C202.214,200.659,199.921,196.462,202.015,193.372z"/>
				<path style="fill:#EEC1BB;" d="M202.935,194.789c0.042-1.019-0.863-2.825-2.769-2.777c-1.973,0.051-3.239,3.986,1.544,5.356
					C202.396,197.565,202.846,196.916,202.935,194.789z"/>
				<path style="fill:#263238;" d="M206.438,178.974c3.461-0.792,12.579-0.499,14.297,9.029l-1.295,0.575
					c0,0-2.962-1.785-6.741-2.34c0,0-0.696-1.427-1.655-2.613c0,0,0.056,1.524-0.111,2.405c0,0-5.984,0.597-8.757,2.894
					c-4.351,3.605-4.715,5.998-4.715,5.998S195.173,181.551,206.438,178.974z"/>
				<path style="fill:#263238;" d="M212.254,199.364c0.303,0.063,0.628,0.103,0.976,0.112c0.094,0.003,0.167-0.074,0.163-0.171
					c-0.004-0.096-0.081-0.176-0.178-0.18c-2.544-0.066-3.812-1.927-3.824-1.945c-0.055-0.083-0.161-0.109-0.238-0.058
					c-0.077,0.051-0.095,0.159-0.04,0.241C209.162,197.436,210.182,198.935,212.254,199.364z"/>
			</g>
			<path style="fill:#407BFF;" d="M212.743,225.7c0,0,2.537,3.049,0.415,3.193C211.037,229.038,212.743,225.7,212.743,225.7z"/>
		</g>
		<circle style="opacity:0.5;fill:#FFFFFF;" cx="327.796" cy="128.775" r="2.845"/>
		<circle style="opacity:0.5;fill:#FFFFFF;" cx="319.321" cy="128.775" r="2.845"/>
		<circle style="opacity:0.5;fill:#FFFFFF;" cx="310.847" cy="128.775" r="2.845"/>
		<g>
			<g>
				<line style="fill:none;stroke:#263238;stroke-miterlimit:10;" x1="154.222" y1="283.339" x2="192.793" y2="283.339"/>
				<line style="fill:none;stroke:#263238;stroke-miterlimit:10;" x1="154.222" y1="287.097" x2="192.793" y2="287.097"/>
				<line style="fill:none;stroke:#263238;stroke-miterlimit:10;" x1="154.222" y1="290.855" x2="192.793" y2="290.855"/>
				<line style="fill:none;stroke:#263238;stroke-miterlimit:10;" x1="154.222" y1="294.613" x2="192.793" y2="294.613"/>
				<line style="fill:none;stroke:#263238;stroke-miterlimit:10;" x1="154.222" y1="298.372" x2="192.793" y2="298.372"/>
				<line style="fill:none;stroke:#263238;stroke-miterlimit:10;" x1="154.222" y1="302.13" x2="180.786" y2="302.13"/>
			</g>
			<rect x="148.98" y="278.295" style="opacity:0.6;fill:#FFFFFF;" width="49.055" height="28.879"/>
		</g>
	</g>
</g>
<g id="Plant">
	<g>
		<g>
			<path style="fill:none;stroke:#407BFF;stroke-miterlimit:10;" d="M97.306,348.722c0,0,6.347-5.292,11.79,0
				c5.443,5.292,6.493,38.076,6.493,38.076"/>
			<path style="fill:none;stroke:#407BFF;stroke-miterlimit:10;" d="M116.039,393.128c0,0-3.742-38.474,10.346-54.642"/>
			<path style="fill:none;stroke:#407BFF;stroke-miterlimit:10;" d="M114.699,389.073c0,0,2.882-43.799-7.684-53.517"/>
			<path style="fill:none;stroke:#407BFF;stroke-miterlimit:10;" d="M116.039,389.073c0,0,0.246-28.942,8.097-33.442
				c7.851-4.499,11.854,10.175,11.854,10.175"/>
			<path style="fill:none;stroke:#407BFF;stroke-miterlimit:10;" d="M112.938,389.073c0,0,1.281-22.219-4.803-30.16
				s-12.486,3.402-12.486,3.402"/>
			<path style="fill:none;stroke:#407BFF;stroke-miterlimit:10;" d="M115.058,392.05c0,0-3.934-51.963,2.576-60.768"/>
		</g>
		<g>
			<path style="fill:#407BFF;" d="M130.86,359.848c0,0-3.915,1.443-2.751,4.85c1.164,3.407,13.544,9.015,13.544,9.015
				s5.185-4.752,0.423-12.481C137.314,353.505,130.966,357.41,130.86,359.848z"/>
			<path style="opacity:0.5;fill:#FFFFFF;enable-background:new    ;" d="M130.86,359.848c0,0-3.915,1.443-2.751,4.85
				c1.164,3.407,13.544,9.015,13.544,9.015s5.185-4.752,0.423-12.481C137.314,353.505,130.966,357.41,130.86,359.848z"/>
		</g>
		<g>
			<path style="fill:#407BFF;" d="M113.841,353.362c0,0,4.169-0.174,4.406,3.418c0.237,3.593-9.031,13.533-9.031,13.533
				s-6.614-2.391-5.193-11.357C105.442,349.991,112.805,351.152,113.841,353.362z"/>
			<path style="opacity:0.5;fill:#FFFFFF;enable-background:new    ;" d="M113.841,353.362c0,0,4.169-0.174,4.406,3.418
				c0.237,3.593-9.031,13.533-9.031,13.533s-6.614-2.391-5.193-11.357C105.442,349.991,112.805,351.152,113.841,353.362z"/>
		</g>
		<g>
			<path style="fill:#407BFF;" d="M110.311,336.164c0,0,2.779-0.298,2.556-1.991c-0.224-1.693-10.805-6.05-17.047,0.996
				c0,0,3.997,6.866,9.776,6.956C111.373,342.214,110.311,336.164,110.311,336.164z"/>
			<path style="opacity:0.5;fill:#FFFFFF;enable-background:new    ;" d="M110.311,336.164c0,0,2.779-0.298,2.556-1.991
				c-0.224-1.693-10.805-6.05-17.047,0.996c0,0,3.997,6.866,9.776,6.956C111.373,342.214,110.311,336.164,110.311,336.164z"/>
		</g>
		<g>
			<path style="fill:#407BFF;" d="M115.491,332.052c0,0-2.517,1.217-3.222-0.338c-0.706-1.555,5.97-10.849,14.994-8.171
				c0,0,0.239,7.942-4.617,11.074C117.789,337.749,115.491,332.052,115.491,332.052z"/>
			<path style="opacity:0.5;fill:#FFFFFF;enable-background:new    ;" d="M115.491,332.052c0,0-2.517,1.217-3.222-0.338
				c-0.706-1.555,5.97-10.849,14.994-8.171c0,0,0.239,7.942-4.617,11.074C117.789,337.749,115.491,332.052,115.491,332.052z"/>
		</g>
		<g>
			<path style="fill:#407BFF;" d="M102.331,358.479c0,0,1.918-1.549-0.152-2.305c-2.07-0.756-12.228-0.541-12.334,9.521
				c0,0,11.83,1.966,13.295-1.867C104.605,359.995,102.331,358.479,102.331,358.479z"/>
			<path style="opacity:0.5;fill:#FFFFFF;enable-background:new    ;" d="M102.331,358.479c0,0,1.918-1.549-0.152-2.305
				c-2.07-0.756-12.228-0.541-12.334,9.521c0,0,11.83,1.966,13.295-1.867C104.605,359.995,102.331,358.479,102.331,358.479z"/>
		</g>
		<g>
			<path style="fill:#407BFF;" d="M126.455,335.911c0,0-1.918-1.549,0.152-2.305c2.07-0.756,12.228-0.541,12.334,9.521
				c0,0-11.83,1.966-13.295-1.867C124.182,337.428,126.455,335.911,126.455,335.911z"/>
			<path style="opacity:0.5;fill:#FFFFFF;enable-background:new    ;" d="M126.455,335.911c0,0-1.918-1.549,0.152-2.305
				c2.07-0.756,12.228-0.541,12.334,9.521c0,0-11.83,1.966-13.295-1.867C124.182,337.428,126.455,335.911,126.455,335.911z"/>
		</g>
		<g>
			<path style="fill:#407BFF;" d="M120.201,344.017c0,0-0.169-1.883,1.351-1.145c1.52,0.738,6.815,6.451,1.326,11.872
				c0,0-7.389-5.472-6.057-8.322C118.154,343.572,120.201,344.017,120.201,344.017z"/>
			<path style="opacity:0.5;fill:#FFFFFF;enable-background:new    ;" d="M120.201,344.017c0,0-0.169-1.883,1.351-1.145
				c1.52,0.738,6.815,6.451,1.326,11.872c0,0-7.389-5.472-6.057-8.322C118.154,343.572,120.201,344.017,120.201,344.017z"/>
		</g>
		<g>
			<path style="fill:#407BFF;" d="M100.616,346.7c0,0,1.147-1.503-0.533-1.689c-1.679-0.186-9.205,1.823-7.453,9.336
				c0,0,9.169-0.689,9.562-3.81C102.586,347.415,100.616,346.7,100.616,346.7z"/>
			<path style="opacity:0.5;fill:#FFFFFF;enable-background:new    ;" d="M100.616,346.7c0,0,1.147-1.503-0.533-1.689
				c-1.679-0.186-9.205,1.823-7.453,9.336c0,0,9.169-0.689,9.562-3.81C102.586,347.415,100.616,346.7,100.616,346.7z"/>
		</g>
		<polygon style="fill:#263238;" points="131.592,416.965 100.133,416.965 96.739,382.522 134.986,382.522 		"/>
		<polygon style="opacity:0.2;fill:#FFFFFF;enable-background:new    ;" points="131.592,416.965 100.133,416.965 96.739,382.522 
			134.986,382.522 		"/>
		<rect x="95.059" y="378.721" style="fill:#263238;" width="41.606" height="7.6"/>
		<rect x="95.059" y="378.721" style="opacity:0.4;fill:#FFFFFF;enable-background:new    ;" width="41.606" height="7.6"/>
	</g>
</g>
<g id="Character">
	<g>
		<g>
			<path style="fill:#407BFF;" d="M346.973,193.453c-7.1,1.491-14.665,30.01-14.665,30.01l6.345,6.844l11.335-20.809
				L346.973,193.453z"/>
			<path style="opacity:0.7;fill:#FFFFFF;" d="M349.99,209.498l-0.24,0.44l-9.48,17.39l-1.62,2.98l-6.34-6.85
				c0,0,7.56-28.51,14.66-30.01L349.99,209.498z"/>
			<path style="opacity:0.1;" d="M349.75,209.938l-9.48,17.39c0-0.29,0.01-0.61,0.03-0.95c0.85-13.22,8.23-20.2,8.23-20.2
				C349.129,207.358,349.53,208.628,349.75,209.938z"/>
		</g>
		<path style="fill:#407BFF;" d="M399.809,266.216c0,0-21.765-5.781-48.141,2.697c0,0-4.246-55.264-3.74-62.855
			c0.506-7.591,40.723-5.369,40.723-5.369s1.038,22.118,3.625,35.463C394.864,249.499,401.135,263.65,399.809,266.216z"/>
		<path style="opacity:0.5;fill:#FFFFFF;" d="M399.809,266.216c0,0-21.765-5.781-48.141,2.697c0,0-4.246-55.264-3.74-62.855
			c0.506-7.591,40.723-5.369,40.723-5.369s1.038,22.118,3.625,35.463C394.864,249.499,401.135,263.65,399.809,266.216z"/>
		<polygon style="fill:#FFB573;" points="338.943,409.863 346.043,411.873 347.733,400.823 348.643,394.913 341.543,392.903 
			340.333,400.823 		"/>
		<polygon style="fill:#FFB573;" points="379.763,410.443 387.083,411.413 387.153,400.823 387.203,394.243 379.873,393.283 
			379.823,400.823 		"/>
		<polygon style="opacity:0.2;" points="379.873,393.283 379.823,400.823 387.153,400.823 387.203,394.243 		"/>
		<polygon style="opacity:0.2;" points="340.333,400.823 347.733,400.823 348.643,394.913 341.543,392.903 		"/>
		<g>
			<path style="fill:#263238;" d="M339.03,408.755l8.063-0.217c0.302-0.008,0.571,0.194,0.647,0.485l1.694,6.493
				c0.176,0.673-0.318,1.329-1.015,1.336c-2.91,0.029-7.119-0.027-10.775,0.071c-4.275,0.115-6.993-0.095-12.005,0.04
				c-3.031,0.082-3.982-2.946-2.723-3.256c5.731-1.413,9.477-1.134,14.358-4.332C337.802,409.028,338.392,408.772,339.03,408.755z"
				/>
			<path style="fill:#407BFF;" d="M338.339,409.79c-0.007,0.003-0.015,0.005-0.023,0.007c-1.18,0.268-3.286,0.614-4.122-0.077
				c-0.252-0.209-0.372-0.49-0.358-0.838c0.009-0.207,0.103-0.37,0.272-0.471c0.882-0.53,3.901,0.897,4.242,1.06
				c0.067,0.032,0.107,0.103,0.099,0.176C338.443,409.712,338.4,409.767,338.339,409.79z M334.353,408.68
				c-0.023,0.009-0.044,0.018-0.063,0.029c-0.069,0.041-0.1,0.097-0.104,0.189c-0.009,0.236,0.066,0.417,0.231,0.554
				c0.469,0.388,1.686,0.426,3.307,0.112C336.533,409.041,334.902,408.474,334.353,408.68z"/>
			<path style="fill:#407BFF;" d="M338.339,409.79c-0.041,0.016-0.087,0.016-0.129-0.002c-0.905-0.374-2.728-1.916-2.623-2.75
				c0.025-0.197,0.155-0.441,0.634-0.504c0.356-0.046,0.685,0.046,0.981,0.272c0.967,0.742,1.237,2.716,1.248,2.8
				c0.008,0.061-0.017,0.122-0.067,0.16C338.37,409.776,338.355,409.784,338.339,409.79z M336.092,406.919
				c-0.143,0.054-0.153,0.133-0.157,0.164c-0.063,0.501,1.182,1.717,2.111,2.237c-0.116-0.576-0.421-1.753-1.056-2.24
				c-0.221-0.17-0.457-0.236-0.721-0.202C336.194,406.888,336.137,406.903,336.092,406.919z"/>
		</g>
		<g>
			<path style="fill:#263238;" d="M380.056,408.755l8.063-0.217c0.302-0.008,0.571,0.194,0.647,0.485l1.694,6.493
				c0.176,0.673-0.318,1.329-1.015,1.336c-2.91,0.029-7.119-0.027-10.775,0.071c-4.275,0.115-6.992-0.095-12.005,0.04
				c-3.031,0.082-3.982-2.946-2.723-3.256c5.731-1.413,9.477-1.134,14.358-4.332C378.828,409.028,379.418,408.772,380.056,408.755z"
				/>
			<path style="fill:#407BFF;" d="M379.365,409.79c-0.007,0.003-0.015,0.005-0.023,0.007c-1.181,0.268-3.286,0.614-4.122-0.077
				c-0.252-0.209-0.372-0.49-0.358-0.838c0.009-0.207,0.103-0.37,0.272-0.471c0.882-0.53,3.901,0.897,4.242,1.06
				c0.067,0.032,0.107,0.103,0.099,0.176C379.469,409.712,379.426,409.767,379.365,409.79z M375.379,408.68
				c-0.023,0.009-0.044,0.018-0.063,0.029c-0.069,0.041-0.1,0.097-0.103,0.189c-0.009,0.236,0.066,0.417,0.231,0.554
				c0.469,0.388,1.686,0.426,3.307,0.112C377.559,409.041,375.928,408.474,375.379,408.68z"/>
			<path style="fill:#407BFF;" d="M379.365,409.79c-0.041,0.016-0.087,0.016-0.129-0.002c-0.905-0.374-2.728-1.916-2.623-2.75
				c0.025-0.197,0.155-0.441,0.634-0.504c0.356-0.046,0.686,0.046,0.981,0.272c0.967,0.742,1.237,2.716,1.248,2.8
				c0.008,0.061-0.017,0.122-0.067,0.16C379.396,409.776,379.381,409.784,379.365,409.79z M377.118,406.919
				c-0.143,0.054-0.153,0.133-0.157,0.164c-0.063,0.501,1.182,1.717,2.111,2.237c-0.116-0.576-0.421-1.753-1.056-2.24
				c-0.221-0.17-0.457-0.236-0.72-0.202C377.22,406.888,377.163,406.903,377.118,406.919z"/>
		</g>
		<path style="fill:#263238;" d="M394.864,249.499c3.878,16.816-2.777,149.065-2.777,149.065h-12.862l-5.499-110.215
			l-20.255,110.215l-13.746-1.001c8.986-85.377,16.93-136.35,16.93-136.35l-0.019-6.441L394.864,249.499z"/>
		<g>
			<path style="fill:#407BFF;" d="M387.936,187.232c-0.465,8.236-0.112,16.451,0.612,24.101c0.533,5.596,1.278,10.887,2.068,15.661
				c1.849,11.191,3.949,19.578,4.248,22.505c-5.602,0.775-26.715,3.689-38.228,5.273c-13.94-38.978-8.69-59.664-8.69-59.664
				l8.757-4.995c0,0,1.284-0.339,1.94-0.49c4.245-0.984,11.337-1.802,16.253-2.243c1.034-0.092,2.085-0.158,3.111-0.206
				C383.229,186.936,387.936,187.232,387.936,187.232z"/>
		</g>
		<g>
			<path style="fill:#FFB573;" d="M373.55,187.198c0,0-8.77,6.92-11.41,6.89c-1.85-0.02-4.53-3.05-4.53-3.05
				c1.35-0.69,2.29-1.47,2.89-2.31c1.83-2.51,0.77-5.56-0.72-8.35l7.69-10.69c0.11,2.14,0.4,4.97,0.99,7.75c0,0.01,0,0.01,0,0.01
				C369.329,181.608,370.889,185.668,373.55,187.198z"/>
			<path style="opacity:0.2;" d="M368.46,177.438c0,0.01,0,0.01,0,0.01c-0.8,4.67-2.84,10.06-7.96,11.28
				c1.83-2.51,0.77-5.56-0.72-8.35l7.69-10.69C367.579,171.828,367.87,174.658,368.46,177.438z"/>
		</g>
		<g>
			<path style="fill:#263238;" d="M345.535,165.434c-0.312,2.893,1.276,8.389,4.715,5.811
				C353.688,168.667,346.071,160.462,345.535,165.434z"/>
			<path style="fill:#FFB573;" d="M365.88,165.187c1.818,6.911,3.235,10.866,0.943,15.442c-3.447,6.883-12.876,6.46-16.733,0.213
				c-3.471-5.623-5.861-15.98-0.085-20.803C355.695,155.288,364.062,158.277,365.88,165.187z"/>
			<path style="fill:#263238;" d="M360.215,162.366l-1.564-7.814c0,0,8.194-2.282,8.676,2.048
				c5.064,1.363,5.337,11.931-0.147,16.684c-3.934-2.035-5.871-11.616-5.871-11.616
				C360.975,161.904,360.603,162.136,360.215,162.366z"/>
			<path style="fill:#FFB573;" d="M370.357,169.971c0.034,1.923-0.83,3.675-1.953,4.785c-1.69,1.671-3.708,0.437-4.22-1.76
				c-0.461-1.978-0.137-5.23,2.032-6.073C368.352,166.092,370.318,167.773,370.357,169.971z"/>
			<path style="fill:#263238;" d="M356.176,170.376c0.182,0.552,0.036,1.093-0.327,1.208c-0.362,0.116-0.804-0.238-0.986-0.79
				c-0.182-0.552-0.036-1.093,0.327-1.208C355.553,169.471,355.994,169.824,356.176,170.376z"/>
			<path style="fill:#263238;" d="M349.909,172.375c0.182,0.552,0.036,1.093-0.327,1.208c-0.363,0.116-0.804-0.238-0.986-0.79
				c-0.182-0.552-0.036-1.093,0.327-1.208S349.727,171.823,349.909,172.375z"/>
			<path style="fill:#ED893E;" d="M351.992,172.014c0,0-0.281,3.477-1.191,5.412c1.252,0.553,2.782-0.396,2.782-0.396
				L351.992,172.014z"/>
			<path style="fill:#263238;" d="M357.25,178.193c-0.217,0.103-0.452,0.197-0.706,0.277c-0.09,0.029-0.187-0.02-0.216-0.11
				c-0.03-0.09,0.022-0.186,0.109-0.214c2.435-0.78,3.012-2.831,3.017-2.851c0.024-0.091,0.119-0.144,0.209-0.119
				c0.092,0.025,0.146,0.119,0.122,0.209C359.763,175.468,359.266,177.237,357.25,178.193z"/>
			<path style="fill:#263238;" d="M357.444,167.745c-0.108,0.051-0.239,0.044-0.345-0.029c-1.257-0.873-2.431-0.421-2.443-0.417
				c-0.175,0.07-0.375-0.015-0.447-0.189c-0.071-0.174,0.014-0.372,0.188-0.442c0.062-0.025,1.534-0.591,3.092,0.492
				c0.156,0.108,0.194,0.32,0.087,0.474C357.541,167.684,357.495,167.721,357.444,167.745z"/>
			<path style="fill:#263238;" d="M346.501,171.091c-0.059,0.028-0.126,0.039-0.195,0.029c-0.188-0.027-0.319-0.199-0.294-0.385
				c0.255-1.867,1.678-2.533,1.738-2.571c0.171-0.079,0.375-0.005,0.456,0.165c0.081,0.17,0.009,0.371-0.16,0.451
				c-0.06,0.025-1.15,0.553-1.355,2.051C346.675,170.949,346.601,171.044,346.501,171.091z"/>
			<path style="fill:#263238;" d="M361.309,161.668c0,0-12.865,7.165-18.502,3.802c-5.637-3.363,0-6.231,0-6.231
				s-1.78,1.978-0.099,2.967c0,0,0.368-5.538,5.178-7.319c0,0-1.291,1.582-0.762,3.363c0,0,3.198-2.766,8.786-4.301
				C361.499,152.416,376.382,153.458,361.309,161.668z"/>
		</g>
		<g>
			<g>
				<path style="fill:#407BFF;" d="M362.137,194.09c0,0,2.135,1.943,4.581,3.823c2.935-1.955,9.743-7.06,8.914-10.92
					c-0.568-1.085-3.627-1.447-3.627-1.447S369.27,190.139,362.137,194.09z"/>
			</g>
			<g>
				<path style="fill:#407BFF;" d="M362.137,194.09c0,0-2.215,2.189-3.512,4.789c-2.48-1.213-2.188-8.618-1.44-9.523
					c1.689-1.313,3.835-1.511,3.835-1.511S359.781,191.347,362.137,194.09z"/>
			</g>
			<g style="opacity:0.2;">
				<g>
					<path style="fill:#FFFFFF;" d="M362.137,194.09c0,0,2.135,1.943,4.581,3.823c2.935-1.955,9.743-7.06,8.914-10.92
						c-0.568-1.085-3.627-1.447-3.627-1.447S369.27,190.139,362.137,194.09z"/>
				</g>
				<g>
					<path style="fill:#FFFFFF;" d="M362.137,194.09c0,0-2.215,2.189-3.512,4.789c-2.48-1.213-2.188-8.618-1.44-9.523
						c1.689-1.313,3.835-1.511,3.835-1.511S359.781,191.347,362.137,194.09z"/>
				</g>
			</g>
		</g>
		<g>
			<path style="fill:#407BFF;" d="M375.633,186.993c0,0,0.33,13.02,3.74,28.25c0.01,0.03,0.01,0.04,0.01,0.04
				c2.82,12.6,7.76,26.71,16.39,36.18c0,0,4.02,9.23,2.71,17.32c0,0,2.63-1.08,3.16-2.57c0.53-1.48-7.12-19.82-8.97-33.73
				c-1.84-13.9-2.9-45.49-2.9-45.49s-3.51-0.65-9.54-0.37C378.833,186.693,377.293,186.803,375.633,186.993z"/>
			<path style="opacity:0.7;fill:#FFFFFF;" d="M401.639,266.208c-0.53,1.49-3.16,2.57-3.16,2.57c1.31-8.09-2.71-17.32-2.71-17.32
				c-0.55-0.6-1.08-1.22-1.61-1.86c-4.84-5.96-8.42-13.41-11.06-21.08c-1.54-4.43-2.75-8.92-3.72-13.24c0,0,0-0.01-0.01-0.04
				c-0.11-0.49-0.21-0.97-0.32-1.45c-2.81-13.18-3.33-24.41-3.41-26.47c-0.01-0.22-0.01-0.33-0.01-0.33c1.66-0.19,3.2-0.3,4.6-0.37
				c6.03-0.28,9.54,0.37,9.54,0.37s0.25,7.34,0.7,16.49c0.01,0.14,0.01,0.27,0.02,0.41c0.14,2.63,0.29,5.39,0.45,8.17l0.01,0.01
				c0.31,5.19,0.68,10.42,1.11,14.87c0.19,2.03,0.4,3.91,0.61,5.54C394.52,246.388,402.17,264.728,401.639,266.208z"/>
			<path style="opacity:0.4;fill:#FFFFFF;" d="M375.633,186.993c0,0,0.33,13.02,3.74,28.25c0.01,0.03,0.01,0.04,0.01,0.04
				l5.05-20.16l-5.34-0.51l5.34-3.14l-4.2-4.85C378.833,186.693,377.293,186.803,375.633,186.993z"/>
		</g>
		<g>
			<path style="fill:#407BFF;" d="M351.413,270.863l1.37,0.99c0,0-1.98-21.16-1.18-49.36c0.04-1.36,0.09-2.67,0.14-3.92
				c1.02-23.86,4.72-28.2,4.96-28.46l-3.46,1.18l-6.27,2.16C345.123,213.813,351.413,270.863,351.413,270.863z"/>
			<path style="opacity:0.7;fill:#FFFFFF;" d="M351.413,270.863l1.37,0.99c0,0-1.98-21.16-1.18-49.36c0.04-1.36,0.09-2.67,0.14-3.92
				c1.02-23.86,4.72-28.2,4.96-28.46l-3.46,1.18l-6.27,2.16C345.123,213.813,351.413,270.863,351.413,270.863z"/>
			<path style="opacity:0.4;fill:#FFFFFF;" d="M352.983,198.473l-3.96,2.48c0,0,1.03,11.67,2.72,17.62
				c1.02-23.86,4.72-28.2,4.96-28.46l-3.46,1.18c-1.38,1.33-3.5,3.61-4.71,6.12L352.983,198.473z"/>
		</g>
		<path style="opacity:0.2;" d="M388.653,204.233c0,0,0.3,4.42,2.29,7.83c-0.16-2.78-0.31-5.54-0.45-8.17
			C389.923,203.863,389.303,203.973,388.653,204.233z"/>
		<path style="opacity:0.2;" d="M369.413,311.803l4.31-23.45l-0.83-12.41C372.893,275.943,366.983,297.463,369.413,311.803z"/>
		<g>
			<path style="fill:#407BFF;" d="M335.683,200.492c2.44-0.162,2.571,2.841,1.445,3.942c-1.126,1.1-4.871,0.314-4.819-1.362
				S333.505,200.636,335.683,200.492z"/>
			<path style="opacity:0.5;fill:#FFFFFF;" d="M335.683,200.492c2.44-0.162,2.571,2.841,1.445,3.942
				c-1.126,1.1-4.871,0.314-4.819-1.362S333.505,200.636,335.683,200.492z"/>
			<path style="fill:#FFFFFF;" d="M338.175,202.836c0,0,12.457,26.138,18.931,31.586h-21.497l-15.901-28.257L338.175,202.836z"/>
			<path style="fill:#263238;" d="M315.105,202.964l20.058-1.76c1.308-0.115,2.551,0.592,3.122,1.775l16.783,34.793
				c0.254,0.528-0.105,1.145-0.689,1.185l-19.958,1.347c-1.278,0.086-2.481-0.607-3.047-1.757l-16.938-34.393
				C314.179,203.632,314.526,203.015,315.105,202.964z"/>
			<path style="opacity:0.2;fill:#FFFFFF;" d="M315.105,202.964l20.058-1.76c1.308-0.115,2.551,0.592,3.122,1.775l16.783,34.793
				c0.254,0.528-0.105,1.145-0.689,1.185l-19.958,1.347c-1.278,0.086-2.481-0.607-3.047-1.757l-16.938-34.393
				C314.179,203.632,314.526,203.015,315.105,202.964z"/>
			<path style="fill:#FFB573;" d="M319.777,223.222l1.947,4.237c3.38,4.106,6.671,0.969,6.671,0.969l2.562-0.558
				c0.869-0.189,1.114-1.193,0.581-2.373l-1.34-2.963c-0.611-1.351-2.013-2.439-3.108-2.414l-2.461,0.058
				c-0.716,0.017-1.336,0.223-1.806,0.599L319.777,223.222z"/>
			<path style="fill:#FFFFFF;" d="M335.778,223.031c-0.047,0.238-0.103,0.477-0.167,0.707l-20.64,1.573
				c0,0,0.993-10.169-0.366-17.311c-0.969-5.061,1.255-5.482,1.255-5.482l19.854-2.042c-0.008,0-0.024,0.008-0.032,0.016
				C333.538,201.311,337.613,214.403,335.778,223.031z"/>
		</g>
		<polygon style="fill:#407BFF;" points="354.436,399.657 338.341,399.657 338.943,395.492 355.038,395.492 		"/>
		<rect x="378.043" y="395.492" style="fill:#407BFF;" width="15.5" height="4.165"/>
		<path style="opacity:0.1;" d="M392.06,226.938c-0.45,0.18-0.91,0.33-1.37,0.47c-2.53,0.76-5.22,1.06-7.59,1.11
			c-2.11,0.05-3.97-0.1-5.25-0.29c-18.64-2.84-19.2-6.66-19.2-6.66s11.68-0.78,17.22-4.12c1.18-0.71,2.24-2.03,3.18-3.66
			c3.51-6.04,5.38-16.41,5.38-16.41s1.44,1.27,3.41,3.29c0.81,0.82,1.71,1.77,2.63,2.81c0.01,0.14,0.01,0.27,0.02,0.41
			c0.14,2.63,0.29,5.39,0.45,8.17l0.01,0.01C391.26,217.258,391.629,222.488,392.06,226.938z"/>
		
			<line style="fill:none;stroke:#263238;stroke-width:1.1217;stroke-linecap:round;stroke-linejoin:round;stroke-miterlimit:10;" x1="351.299" y1="209.865" x2="342.232" y2="223.458"/>
		<path style="fill:#FFB573;" d="M357.536,215.452l0.207,4.729c-1.557,4.723-7.284,1.671-7.284,1.671l-3.346-0.356
			c-1.134-0.121-2.016-1.174-2.083-2.49l-0.17-3.305c-0.077-1.506,0.931-2.807,2.235-2.883l2.931-0.171
			c0.853-0.05,1.705,0.113,2.48,0.472L357.536,215.452z"/>
		<g>
			<path style="fill:#407BFF;" d="M389.773,186.993c11.155,3.12,1.925,37.402-2.164,38.546c-7.744,2.165-30.906-2.076-30.906-2.076
				l-0.048-9.041c0,0,22.298,2.188,24.175,1.348c2.433-1.089,3.614-14.03,4.141-20.142
				C385.499,189.515,389.773,186.993,389.773,186.993z"/>
			<path style="opacity:0.7;fill:#FFFFFF;" d="M389.773,186.993c11.155,3.12,1.925,37.402-2.164,38.546
				c-7.744,2.165-30.906-2.076-30.906-2.076l-0.048-9.041c0,0,22.298,2.188,24.175,1.348c2.433-1.089,3.614-14.03,4.141-20.142
				C385.499,189.515,389.773,186.993,389.773,186.993z"/>
		</g>
	</g>
</g>
</svg>
