<svg xmlns="http://www.w3.org/2000/svg" version="1.1" xmlns:xlink="http://www.w3.org/1999/xlink" xmlns:svgjs="http://svgjs.dev/svgjs" width="1440" height="560" preserveAspectRatio="none" viewBox="0 0 1440 560"><g mask="url(&quot;#SvgjsMask1457&quot;)" fill="none"><rect width="1440" height="560" x="0" y="0" fill="rgba(120, 144, 156, 1)"></rect><path d="M931.257,251.701C990.309,252.23,1048.402,224.916,1076.639,173.05C1103.852,123.064,1090.099,63.1,1060.347,14.583C1032.119,-31.448,985.254,-63.974,931.257,-64.023C877.179,-64.072,829.616,-32.003,801.759,14.348C772.947,62.288,763.531,121.384,790.319,170.484C818.152,221.499,873.145,251.18,931.257,251.701" fill="rgba(28, 83, 142, 0.4)" class="triangle-float3"></path><path d="M281.05644974152546 247.35399372405686L185.7266101533816 192.3152851760382 130.68790160536295 287.645124764182 226.0177411935068 342.6838333122007z" fill="rgba(28, 83, 142, 0.4)" class="triangle-float2"></path><path d="M1374.014,173.584C1399.459,173.611,1421.576,156.95,1433.553,134.5C1444.842,113.338,1442.036,88.537,1430.645,67.43C1418.554,45.026,1399.432,25.605,1374.014,24.177C1346.271,22.619,1318.348,35.916,1305.177,60.383C1292.543,83.851,1300.842,111.604,1314.69,134.377C1327.89,156.084,1348.609,173.558,1374.014,173.584" fill="rgba(28, 83, 142, 0.4)" class="triangle-float1"></path><path d="M281.165,269.216C337.572,271.144,396.021,247.942,422.133,197.906C446.873,150.499,421.978,96.966,395.213,50.672C368.488,4.448,334.559,-46.13,281.165,-45.915C227.987,-45.701,193.722,4.662,168.693,51.582C145.519,95.024,133.347,145.069,155.952,188.81C180.36,236.039,228.033,267.4,281.165,269.216" fill="rgba(28, 83, 142, 0.4)" class="triangle-float1"></path><path d="M1350.877,421.777C1378.253,420.71,1404.91,411.52,1420.061,388.694C1437.019,363.146,1443.109,330.839,1429.462,303.379C1414.311,272.892,1384.897,248.211,1350.877,249.485C1318.364,250.702,1297.459,280.351,1281.862,308.905C1267.103,335.924,1255.618,368.21,1271.678,394.476C1287.291,420.01,1320.971,422.942,1350.877,421.777" fill="rgba(28, 83, 142, 0.4)" class="triangle-float3"></path><path d="M-75.26501448360787 177.1116753542593L8.57121688645465 263.9266343319189 95.38617586411422 180.09040296185634 11.5499444940517 93.27544398419677z" fill="rgba(28, 83, 142, 0.4)" class="triangle-float1"></path><path d="M364.285,77.082C381.502,77.663,399.56,73.078,408.794,58.535C418.618,43.062,417.763,23.126,408.631,7.235C399.467,-8.712,382.675,-19.251,364.285,-18.915C346.421,-18.589,331.035,-6.977,322.66,8.806C314.8,23.618,315.966,41.379,324.694,55.696C333.062,69.422,348.218,76.54,364.285,77.082" fill="rgba(28, 83, 142, 0.4)" class="triangle-float3"></path><path d="M1464.51,727.303C1507.72,724.393,1542.887,695.953,1564.103,658.198C1584.832,621.309,1588.611,577.81,1569.821,539.897C1548.583,497.042,1512.321,455.93,1464.51,457.241C1418.022,458.516,1392.157,505.227,1368.751,545.412C1345.111,585.999,1316.735,631.821,1338.616,673.383C1361.409,716.679,1415.692,730.591,1464.51,727.303" fill="rgba(28, 83, 142, 0.4)" class="triangle-float3"></path><path d="M1172.6849660749622 60.01688944841004L1129.2731295403996 141.66267932825082 1210.9189194202404 185.07451586281348 1254.330755954803 103.42872598297271z" fill="rgba(28, 83, 142, 0.4)" class="triangle-float1"></path><path d="M1245.2939458565745 469.6066495592361L1363.1506677009897 404.2776018663254 1297.8216200080792 286.42088002191014 1179.964898163664 351.7499277148207z" fill="rgba(28, 83, 142, 0.4)" class="triangle-float1"></path><path d="M745.5105195337203 323.38112696884104L636.5695105415195 283.7298424047533 596.9182259774318 392.67085139695405 705.8592349696326 432.3221359610418z" fill="rgba(28, 83, 142, 0.4)" class="triangle-float1"></path></g><defs><mask id="SvgjsMask1457"><rect width="1440" height="560" fill="#ffffff"></rect></mask><style>
                @keyframes float1 {
                    0%{transform: translate(0, 0)}
                    50%{transform: translate(-10px, 0)}
                    100%{transform: translate(0, 0)}
                }

                .triangle-float1 {
                    animation: float1 5s infinite;
                }

                @keyframes float2 {
                    0%{transform: translate(0, 0)}
                    50%{transform: translate(-5px, -5px)}
                    100%{transform: translate(0, 0)}
                }

                .triangle-float2 {
                    animation: float2 4s infinite;
                }

                @keyframes float3 {
                    0%{transform: translate(0, 0)}
                    50%{transform: translate(0, -10px)}
                    100%{transform: translate(0, 0)}
                }

                .triangle-float3 {
                    animation: float3 6s infinite;
                }
            </style></defs></svg>